<svg width="344" height="84" viewBox="0 0 344 84" fill="none" xmlns="http://www.w3.org/2000/svg">
<path d="M60 0.0960083C44.0002 0.0960083 33.9998 8.09616 30 24.096C36 16.0959 42.9998 13.0959 51 15.096C55.5642 16.2369 58.8267 19.5487 62.438 23.2138C68.3208 29.1852 75.1289 36.096 90 36.096C106 36.096 116 28.0959 120 12.096C114 20.0962 107 23.0962 99 21.096C94.4358 19.9551 91.1733 16.6434 87.562 12.9782C81.6792 7.00679 74.8711 0.0960083 60 0.0960083ZM30 36.096C14.0002 36.096 3.99984 44.0962 0 60.096C6 52.0959 12.9998 49.0959 21 51.096C25.5642 52.2369 28.8267 55.5487 32.438 59.2138C38.3208 65.1852 45.1289 72.096 60 72.096C75.9998 72.096 86.0002 64.0959 90 48.096C84 56.0962 77.0002 59.0962 69 57.096C64.4358 55.9551 61.1733 52.6434 57.562 48.9782C51.6792 43.0068 44.8711 36.096 30 36.096Z" fill="#38BDF8"/>
<path d="M174.464 22.912V29.24H164.048V62H156.208V29.24H145.792V22.912H174.464ZM178.168 46.376C178.168 43.24 178.784 40.4587 180.016 38.032C181.286 35.6053 182.984 33.7387 185.112 32.432C187.278 31.1253 189.686 30.472 192.336 30.472C194.651 30.472 196.667 30.9387 198.384 31.872C200.139 32.8053 201.539 33.9813 202.584 35.4V30.976H210.48V62H202.584V57.464C201.576 58.92 200.176 60.1333 198.384 61.104C196.63 62.0373 194.595 62.504 192.28 62.504C189.667 62.504 187.278 61.832 185.112 60.488C182.984 59.144 181.286 57.2587 180.016 54.832C178.784 52.368 178.168 49.5493 178.168 46.376ZM202.584 46.488C202.584 44.584 202.211 42.96 201.464 41.616C200.718 40.2347 199.71 39.1893 198.44 38.48C197.171 37.7333 195.808 37.36 194.352 37.36C192.896 37.36 191.552 37.7147 190.32 38.424C189.088 39.1333 188.08 40.1787 187.296 41.56C186.55 42.904 186.176 44.5093 186.176 46.376C186.176 48.2427 186.55 49.8853 187.296 51.304C188.08 52.6853 189.088 53.7493 190.32 54.496C191.59 55.2427 192.934 55.616 194.352 55.616C195.808 55.616 197.171 55.2613 198.44 54.552C199.71 53.8053 200.718 52.76 201.464 51.416C202.211 50.0347 202.584 48.392 202.584 46.488ZM222.113 27.28C220.732 27.28 219.575 26.8507 218.641 25.992C217.745 25.096 217.297 23.9947 217.297 22.688C217.297 21.3813 217.745 20.2987 218.641 19.44C219.575 18.544 220.732 18.096 222.113 18.096C223.495 18.096 224.633 18.544 225.529 19.44C226.463 20.2987 226.929 21.3813 226.929 22.688C226.929 23.9947 226.463 25.096 225.529 25.992C224.633 26.8507 223.495 27.28 222.113 27.28ZM225.977 30.976V62H218.137V30.976H225.977ZM241.563 20.56V62H233.723V20.56H241.563ZM261.181 62.504C258.643 62.504 256.365 62.056 254.349 61.16C252.333 60.2267 250.728 58.976 249.533 57.408C248.376 55.84 247.741 54.104 247.629 52.2H255.525C255.675 53.3947 256.253 54.384 257.261 55.168C258.307 55.952 259.595 56.344 261.125 56.344C262.619 56.344 263.776 56.0453 264.597 55.448C265.456 54.8507 265.885 54.0853 265.885 53.152C265.885 52.144 265.363 51.3973 264.317 50.912C263.309 50.3893 261.685 49.8293 259.445 49.232C257.131 48.672 255.227 48.0933 253.733 47.496C252.277 46.8987 251.008 45.984 249.925 44.752C248.88 43.52 248.357 41.8587 248.357 39.768C248.357 38.0507 248.843 36.4827 249.813 35.064C250.821 33.6453 252.24 32.5253 254.069 31.704C255.936 30.8827 258.12 30.472 260.621 30.472C264.317 30.472 267.267 31.4053 269.469 33.272C271.672 35.1013 272.885 37.584 273.109 40.72H265.605C265.493 39.488 264.971 38.5173 264.037 37.808C263.141 37.0613 261.928 36.688 260.397 36.688C258.979 36.688 257.877 36.9493 257.093 37.472C256.347 37.9947 255.973 38.7227 255.973 39.656C255.973 40.7013 256.496 41.504 257.541 42.064C258.587 42.5867 260.211 43.128 262.413 43.688C264.653 44.248 266.501 44.8267 267.957 45.424C269.413 46.0213 270.664 46.9547 271.709 48.224C272.792 49.456 273.352 51.0987 273.389 53.152C273.389 54.944 272.885 56.5493 271.877 57.968C270.907 59.3867 269.488 60.5067 267.621 61.328C265.792 62.112 263.645 62.504 261.181 62.504ZM300.897 22.912V47.104C300.897 49.7547 301.587 51.7893 302.969 53.208C304.35 54.5893 306.291 55.28 308.793 55.28C311.331 55.28 313.291 54.5893 314.673 53.208C316.054 51.7893 316.745 49.7547 316.745 47.104V22.912H324.641V47.048C324.641 50.3707 323.913 53.1893 322.457 55.504C321.038 57.7813 319.115 59.4987 316.689 60.656C314.299 61.8133 311.63 62.392 308.681 62.392C305.769 62.392 303.118 61.8133 300.729 60.656C298.377 59.4987 296.51 57.7813 295.129 55.504C293.747 53.1893 293.057 50.3707 293.057 47.048V22.912H300.897ZM340.056 22.912V62H332.216V22.912H340.056Z" fill="#38BDF8"/>
</svg>
